<svg width="598" height="535" viewBox="0 0 598 535" fill="none" xmlns="http://www.w3.org/2000/svg">
<g clip-path="url(#clip0_134_29)">
<path d="M573.55 365.74L390.54 62.93C378.03 41.26 359.01 25.7 337.38 17.27C337.22 17.21 337.06 17.15 336.91 17.09C336.37 16.88 335.84 16.68 335.3 16.48C334.86 16.32 334.41 16.16 333.97 16C333.72 15.91 333.48 15.83 333.23 15.74C322.76 12.13 311.98 10.26 301.26 10.03C301.07 10.03 300.87 10.03 300.68 10.02C300.08 10.01 299.48 10 298.89 10C298.29 10 297.69 10.01 297.1 10.02C296.91 10.02 296.71 10.02 296.52 10.03C285.8 10.26 275.01 12.14 264.55 15.74C264.3 15.82 264.06 15.91 263.81 16C263.37 16.16 262.92 16.32 262.48 16.48C261.94 16.68 261.4 16.88 260.87 17.09C260.71 17.15 260.55 17.21 260.39 17.27C238.76 25.7 219.74 41.26 207.23 62.93L24.2 365.74C-5.03003 416.35 12.31 481.07 62.93 510.3C113.55 539.52 178.27 522.18 207.49 471.57L298.87 320.37L390.25 471.57C419.47 522.19 484.2 539.53 534.81 510.3C585.43 481.07 602.77 416.35 573.55 365.74Z" fill="black" stroke="black" stroke-width="20" stroke-miterlimit="10" stroke-linecap="round" stroke-linejoin="round"/>
<path d="M129.39 328.93L33.1299 484.55C41.1599 494.63 51.0899 503.46 62.9299 510.29C113.55 539.51 178.27 522.17 207.49 471.56L298.87 320.36C258.78 268.3 170.71 262.13 129.39 328.93Z" fill="white" stroke="black" stroke-width="20" stroke-miterlimit="10"/>
</g>
<defs>
<clipPath id="clip0_134_29">
<rect width="597.75" height="534.49" fill="white"/>
</clipPath>
</defs>
</svg>
